<?xml version="1.0" standalone="no"?><!DOCTYPE svg PUBLIC "-//W3C//DTD SVG 1.1//EN" "http://www.w3.org/Graphics/SVG/1.1/DTD/svg11.dtd"><svg t="1565331841221" class="icon" viewBox="0 0 1024 1024" version="1.1" xmlns="http://www.w3.org/2000/svg" p-id="1546" xmlns:xlink="http://www.w3.org/1999/xlink" width="48" height="48"><defs><style type="text/css"></style></defs><path d="M445.2352 921.6H170.66666667a68.26666667 68.26666667 0 0 1-68.26666667-68.26666667V170.66666667a68.26666667 68.26666667 0 0 1 68.26666667-68.26666667h614.4a68.26666667 68.26666667 0 0 1 68.26666666 68.26666667v233.60853333c24.576 10.78613333 47.03573333 24.9856 68.26666667 41.02826667V170.66666667A136.53333333 136.53333333 0 0 0 785.06666667 34.13333333H170.66666667A136.53333333 136.53333333 0 0 0 34.13333333 170.66666667v682.66666666a136.53333333 136.53333333 0 0 0 136.53333334 136.53333334h343.17653333a343.92746667 343.92746667 0 0 1-68.608-68.26666667z" p-id="1547"></path><path d="M716.8 443.73333333a273.06666667 273.06666667 0 1 0 0 546.13333334 273.06666667 273.06666667 0 0 0 0-546.13333334z m0 477.73013334a204.66346667 204.66346667 0 1 1 0-409.3952 204.66346667 204.66346667 0 0 1 0 409.3952z" p-id="1548"></path><path d="M761.78773333 666.07786667L716.8 580.26666667l-44.98773333 85.8112L580.26666667 684.57813333l63.76106666 71.4752-11.60533333 97.28L716.8 811.75893333 801.1776 853.33333333l-11.60533333-97.28L853.33333333 684.57813333zM716.8 307.2a34.13333333 34.13333333 0 0 0-34.13333333-34.13333333H273.06666667a34.13333333 34.13333333 0 0 0 0 68.26666666h409.6a34.13333333 34.13333333 0 0 0 34.13333333-34.13333333zM477.86666667 477.86666667a34.13333333 34.13333333 0 0 0-34.13333334-34.13333334H273.06666667a34.13333333 34.13333333 0 0 0 0 68.26666667h170.66666666a34.13333333 34.13333333 0 0 0 34.13333334-34.13333333zM273.06666667 614.4a34.13333333 34.13333333 0 0 0 0 68.26666667h68.26666666a34.13333333 34.13333333 0 0 0 0-68.26666667h-68.26666666z" p-id="1549"></path></svg>