<?xml version="1.0" standalone="no"?><!DOCTYPE svg PUBLIC "-//W3C//DTD SVG 1.1//EN" "http://www.w3.org/Graphics/SVG/1.1/DTD/svg11.dtd"><svg t="1565331754979" class="icon" viewBox="0 0 1050 1024" version="1.1" xmlns="http://www.w3.org/2000/svg" p-id="1135" width="49.21875" height="48" xmlns:xlink="http://www.w3.org/1999/xlink"><defs><style type="text/css"></style></defs><path d="M699.09839799 697.494468l39.86160901-49.764855a441.633001 441.633001 0 0 0-116.272762-67.103021A305.726491 305.726491 0 0 0 794.334504 305.710196 305.769427 305.769427 0 1 0 333.917489 569.577055c-181.889 55.034004-314.3117 224.004251-314.3117 423.911405h63.747022a378.992331 378.992331 0 0 1 378.991332-379.034269c87.289945 0 169.989729 29.577931 236.753256 83.040277zM246.456799 305.710196a242.06534199 242.06534199 0 1 1 484.13068299 0 242.06534199 242.06534199 0 0 1-484.13068299 0z" p-id="1136"></path><path d="M791.23212601 591.973685l-10.96366501 62.76848 138.28596501 24.096099-238.49466201 150.313045-76.32628-79.640342-285.795187 212.78496699 38.077268 51.12383001 240.66343-179.21099001 73.43558699 76.62283801 277.67828101-175.047193-29.493058 126.387692 62.087495 14.448473 56.437911-241.937532z" p-id="1137"></path></svg>