<?xml version="1.0" standalone="no"?><!DOCTYPE svg PUBLIC "-//W3C//DTD SVG 1.1//EN" "http://www.w3.org/Graphics/SVG/1.1/DTD/svg11.dtd"><svg t="1565359454211" class="icon" viewBox="0 0 1024 1024" version="1.1" xmlns="http://www.w3.org/2000/svg" p-id="11193" xmlns:xlink="http://www.w3.org/1999/xlink" width="48" height="48"><defs><style type="text/css"></style></defs><path d="M464.738462 559.261538m-433.23077 0a433.230769 433.230769 0 1 0 866.461539 0 433.230769 433.230769 0 1 0-866.461539 0Z" fill="#FFDA00" p-id="11194"></path><path d="M512 0C228.430769 0 0 228.430769 0 512s228.430769 512 512 512 512-228.430769 512-512S795.569231 0 512 0z m0 964.923077C263.876923 964.923077 59.076923 760.123077 59.076923 512S263.876923 59.076923 512 59.076923 964.923077 263.876923 964.923077 512 760.123077 964.923077 512 964.923077z" fill="#111111" p-id="11195"></path><path d="M665.6 393.846154c-19.692308-3.938462-39.384615-3.938462-59.076923 7.876923-19.692308 7.876923-35.446154 19.692308-47.261539 31.507692-3.938462 7.876923-7.876923 11.815385-11.815384 19.692308-3.938462 7.876923 0 15.753846 7.876923 15.753846h3.938461c7.876923 0 15.753846 0 23.63077 7.876923 11.815385 11.815385 15.753846 27.569231 7.876923 43.323077-7.876923 19.692308-15.753846 35.446154-27.569231 55.138462-15.753846 19.692308-23.630769 27.569231-31.507692 31.507692-7.876923 3.938462-11.815385-3.938462-15.753846-11.815385-7.876923-15.753846-11.815385-31.507692-15.753847-47.261538-7.876923-27.569231-15.753846-70.892308-19.692307-98.461539 0-15.753846-7.876923-31.507692-15.753846-43.323077-7.876923-11.815385-23.630769-15.753846-35.446154-11.815384-23.630769 7.876923-43.323077 19.692308-59.076923 35.446154-15.753846 15.753846-31.507692 27.569231-47.261539 43.323077-3.938462 3.938462-3.938462 11.815385 0 15.753846 3.938462 3.938462 11.815385 7.876923 15.753846 3.938461 3.938462-3.938462 11.815385-3.938462 15.753846-7.876923 3.938462-3.938462 19.692308-11.815385 27.569231 7.876923s11.815385 43.323077 23.630769 78.769231c11.815385 43.323077 19.692308 63.015385 27.569231 86.646154 3.938462 19.692308 15.753846 39.384615 31.507693 55.138461 15.753846 11.815385 35.446154 15.753846 55.138461 7.876924 23.630769-15.753846 47.261538-35.446154 66.953846-55.138462 43.323077-39.384615 78.769231-90.584615 102.4-145.723077 15.753846-27.569231 19.692308-59.076923 15.753846-90.584615-3.938462-11.815385-19.692308-31.507692-39.384615-35.446154z" fill="#111111" p-id="11196"></path></svg>