<?xml version="1.0" standalone="no"?><!DOCTYPE svg PUBLIC "-//W3C//DTD SVG 1.1//EN" "http://www.w3.org/Graphics/SVG/1.1/DTD/svg11.dtd"><svg t="1565359295870" class="icon" viewBox="0 0 1024 1024" version="1.1" xmlns="http://www.w3.org/2000/svg" p-id="6278" xmlns:xlink="http://www.w3.org/1999/xlink" width="48" height="48"><defs><style type="text/css"></style></defs><path d="M270.494726 495.88768L154.457009 928.797624a30.99298 30.99298 0 0 0 34.774124 38.648246l103.640525-16.333301 81.604516 65.984055a30.99298 30.99298 0 0 0 49.40281-16.11635l116.006724-432.909944L270.494726 495.88768z" fill="#7CFDE0" p-id="6279"></path><path d="M483.075576 568.101323l116.006724 432.909944a30.99298 30.99298 0 0 0 49.40281 16.085357l81.604516-66.015048 103.640525 16.364294a30.99298 30.99298 0 0 0 34.774124-38.648246L752.497551 495.88768l-269.421975 72.213643z" fill="#7CFDE0" p-id="6280"></path><path d="M511.496139 418.40523m-418.40523 0a418.40523 418.40523 0 1 0 836.810459 0 418.40523 418.40523 0 1 0-836.810459 0Z" fill="#53D4D0" p-id="6281"></path><path d="M511.496139 534.628904l-81.046643 42.615348a30.99298 30.99298 0 0 1-44.939821-32.666601l15.465497-90.251558-65.581146-63.907524a30.99298 30.99298 0 0 1 17.170111-52.874024l90.623474-13.172017 40.507825-82.100404a30.99298 30.99298 0 0 1 55.601406 0l40.507825 82.131397 90.623473 13.141024a30.99298 30.99298 0 0 1 17.170111 52.874024l-65.581146 63.907524 15.49649 90.251558a30.99298 30.99298 0 0 1-44.970814 32.666601L511.496139 534.628904z" fill="#FFFFFF" p-id="6282"></path></svg>